<svg width="96" height="96" xmlns="http://www.w3.org/2000/svg" xmlns:xlink="http://www.w3.org/1999/xlink" overflow="hidden"><defs><clipPath id="clip0"><rect x="167" y="137" width="96" height="96"/></clipPath></defs><g clip-path="url(#clip0)" transform="translate(-167 -137)"><path d="M209 185C209 188.314 211.686 191 215 191 218.314 191 221 188.314 221 185 221 181.686 218.314 179 215 179 211.688 179.003 209.003 181.688 209 185ZM219 185C219 187.209 217.209 189 215 189 212.791 189 211 187.209 211 185 211 182.791 212.791 181 215 181 217.209 181 219 182.791 219 185Z"/><path d="M260 221C252.757 220.997 245.819 218.087 240.742 212.921 256.065 198.723 256.977 174.793 242.779 159.47 228.582 144.147 204.651 143.235 189.328 157.433 174.006 171.63 173.093 195.561 187.291 210.884 200.959 225.635 223.781 227.112 239.236 214.244 244.695 219.841 252.182 222.998 260 223ZM215 221C195.118 221 179 204.882 179 185 179 165.118 195.118 149 215 149 234.882 149 251 165.118 251 185 250.978 204.873 234.873 220.978 215 221Z"/><path d="M215 174C219.971 174 224 169.971 224 165 224 160.029 219.971 156 215 156 210.029 156 206 160.029 206 165 206.005 169.968 210.032 173.995 215 174ZM215 172C212.91 172.002 210.928 171.067 209.6 169.453 213.091 168.214 216.902 168.214 220.393 169.453 219.066 171.065 217.088 171.999 215 172ZM208 165C207.999 161.134 211.133 158 214.999 157.999 218.865 157.999 221.999 161.132 222 164.998 222 165.933 221.813 166.858 221.45 167.719 217.296 166.137 212.704 166.137 208.55 167.719 208.186 166.859 207.999 165.934 208 165Z"/><path d="M233 184C237.971 184 242 179.971 242 175 242 170.029 237.971 166 233 166 228.029 166 224 170.029 224 175 224.005 179.968 228.032 183.995 233 184ZM233 168C236.866 168 240 171.134 240 175 240 178.866 236.866 182 233 182 232.934 182 232.87 181.992 232.805 181.99 232.233 177.843 230.22 174.029 227.119 171.217 228.405 169.215 230.62 168.003 233 168ZM230.738 181.618C227.229 180.436 225.26 176.713 226.257 173.147 228.589 175.44 230.154 178.4 230.738 181.618Z"/><path d="M233 186C228.029 186 224 190.029 224 195 224 199.971 228.029 204 233 204 237.971 204 242 199.971 242 195 241.995 190.032 237.968 186.005 233 186ZM226.084 196.028C225.572 192.779 227.419 189.619 230.5 188.469 229.766 191.353 228.236 193.972 226.084 196.028ZM226.742 198.117C228.496 196.611 229.942 194.78 231 192.725L231 194C231.004 196.686 231.382 199.357 232.122 201.939 229.803 201.642 227.786 200.208 226.742 198.117ZM234.2 201.89C233.41 199.334 233.006 196.675 233 194L233 188C236.866 188.02 239.984 191.169 239.964 195.035 239.947 198.411 237.523 201.294 234.2 201.89Z"/><path d="M215 196C210.029 196 206 200.029 206 205 206 209.971 210.029 214 215 214 219.971 214 224 209.971 224 205 223.995 200.032 219.968 196.005 215 196ZM215 198C216.726 198 218.391 198.642 219.671 199.8 216.625 200.718 213.375 200.718 210.329 199.8 211.609 198.642 213.274 198 215 198ZM215 212C211.142 212.008 208.008 208.888 208 205.03 207.997 203.769 208.336 202.531 208.98 201.447 212.87 202.851 217.13 202.851 221.02 201.447 222.991 204.763 221.9 209.049 218.583 211.02 217.499 211.664 216.261 212.003 215 212Z"/><path d="M197 186C192.029 186 188 190.029 188 195 188 199.971 192.029 204 197 204 201.971 204 206 199.971 206 195 205.995 190.032 201.968 186.005 197 186ZM197 202C193.134 202 190 198.866 190 195 190 191.134 193.134 188 197 188 197.123 188 197.243 188.012 197.365 188.018 198.141 191.95 200.217 195.508 203.259 198.118 202.077 200.494 199.654 201.997 197 202ZM199.5 188.47C202.583 189.622 204.429 192.785 203.914 196.036 201.763 193.977 200.234 191.355 199.5 188.47Z"/><path d="M197 184C201.971 184 206 179.971 206 175 206 170.029 201.971 166 197 166 192.029 166 188 170.029 188 175 188.005 179.968 192.032 183.995 197 184ZM203.741 173.141C204.742 176.708 202.774 180.434 199.263 181.617 199.843 178.396 201.407 175.435 203.741 173.141ZM197 168C199.38 168.003 201.596 169.216 202.882 171.219 199.781 174.03 197.769 177.843 197.2 181.99 197.134 181.99 197.07 182 197 182 193.134 182 190 178.866 190 175 190 171.134 193.134 168 197 168Z"/></g></svg>