<svg width="133" height="127" xmlns="http://www.w3.org/2000/svg" xmlns:xlink="http://www.w3.org/1999/xlink" overflow="hidden"><defs><clipPath id="clip0"><rect x="3737" y="1593" width="133" height="127"/></clipPath></defs><g clip-path="url(#clip0)" transform="translate(-3737 -1593)"><path d="M3807.54 1594.5C3803.8 1594.5 3800.91 1595.3 3800.71 1595.37 3799.88 1595.78 3799.2 1596.47 3799.2 1597.42L3799.2 1625.81 3778.61 1652.02C3777.92 1649.15 3775.33 1646.97 3772.05 1646.97L3745.19 1646.97C3741.64 1646.97 3738.51 1649.84 3738.51 1653.66L3738.51 1660.21C3738.51 1661.44 3739.6 1662.26 3740.55 1662.26 3741.64 1662.26 3742.6 1661.3 3742.6 1660.21L3742.6 1653.66C3742.6 1652.29 3743.69 1651.2 3745.05 1651.2L3771.93 1651.2C3773.29 1651.2 3774.38 1652.29 3774.38 1653.66L3774.38 1711.8C3774.38 1713.17 3773.29 1714.13 3771.93 1714.13L3745.05 1714.13C3743.69 1714.13 3742.6 1713.17 3742.6 1711.8L3742.6 1669.09C3742.6 1667.99 3741.64 1667.04 3740.55 1667.04 3739.32 1667.04 3738.51 1668.12 3738.51 1669.09L3738.51 1711.8C3738.51 1715.36 3741.38 1718.5 3745.19 1718.5L3772.05 1718.5C3775.74 1718.5 3778.74 1715.5 3778.74 1711.8L3778.74 1706.21 3789.11 1711.27C3789.51 1711.4 3789.79 1711.4 3790.2 1711.4L3830.43 1711.4C3831.66 1711.4 3832.48 1710.44 3832.48 1709.35 3832.48 1708.26 3831.4 1707.3 3830.43 1707.3L3790.75 1707.3 3778.88 1701.43 3778.88 1658.58 3803.16 1627.86C3803.43 1627.45 3803.71 1627.05 3803.71 1626.5L3803.71 1599.06C3804.79 1598.85 3806.36 1598.6 3808.15 1598.6 3810.82 1598.6 3813.96 1599.14 3816.66 1601.1 3820.2 1603.57 3821.84 1608.34 3821.84 1615.17L3821.84 1637.55C3821.84 1638.78 3822.93 1639.6 3823.89 1639.6L3857.58 1639.6C3861.26 1639.6 3864.4 1642.74 3864.4 1646.42 3864.4 1650.25 3861.26 1653.26 3857.58 1653.26L3839.57 1653.26C3838.49 1653.26 3837.52 1654.34 3837.52 1655.3 3837.52 1656.52 3838.62 1657.35 3839.57 1657.35L3855.67 1657.35C3859.22 1657.49 3862.08 1660.62 3862.08 1664.17 3862.08 1667.86 3859.08 1670.99 3855.26 1670.99L3839.57 1670.99C3838.49 1670.99 3837.52 1672.09 3837.52 1673.04 3837.52 1674.27 3838.62 1675.1 3839.57 1675.1L3853.89 1675.1C3857.31 1675.36 3859.9 1678.5 3859.9 1681.92 3859.9 1685.6 3856.9 1688.74 3853.08 1688.74L3839.57 1688.74C3838.49 1688.74 3837.52 1689.83 3837.52 1690.79 3837.52 1692.02 3838.62 1692.83 3839.57 1692.83L3851.72 1692.83C3851.85 1692.83 3852.12 1692.97 3852.12 1692.97 3855.26 1693.66 3857.72 1696.38 3857.72 1699.8 3857.72 1703.62 3854.58 1706.62 3850.89 1706.62L3839.57 1706.62C3838.49 1706.62 3837.52 1707.71 3837.52 1708.66 3837.52 1709.9 3838.62 1710.72 3839.57 1710.72L3850.89 1710.72C3857.03 1710.72 3861.95 1705.8 3861.95 1699.66 3861.95 1696.38 3860.58 1693.52 3858.4 1691.47 3861.81 1689.56 3864.12 1686.01 3864.12 1681.78 3864.12 1678.5 3862.76 1675.63 3860.58 1673.59 3863.99 1672.49 3866.17 1668.81 3866.17 1664.58 3866.17 1661.3 3864.81 1658.44 3862.62 1656.39 3866.04 1654.48 3868.49 1650.93 3868.49 1646.56 3868.49 1640.42 3863.45 1635.51 3857.31 1635.51L3825.8 1635.51 3825.8 1615.45C3825.8 1607.25 3823.48 1601.24 3818.84 1597.84 3815.29 1595.2 3811.04 1594.5 3807.54 1594.5Z" stroke="#F4FF61" stroke-width="3.4375" stroke-linejoin="round" stroke-miterlimit="10" fill="#657E93" fill-rule="evenodd"/><path d="M3763.07 1700.65C3764.41 1700.65 3765.35 1701.72 3765.35 1703.07 3765.35 1704.41 3764.41 1705.35 3763.07 1705.35 3761.73 1705.35 3760.66 1704.41 3760.66 1703.07 3760.66 1701.72 3761.59 1700.65 3763.07 1700.65ZM3763.07 1696.5C3759.46 1696.5 3756.51 1699.31 3756.51 1703.07 3756.51 1706.69 3759.32 1709.5 3763.07 1709.5 3766.69 1709.5 3769.5 1706.69 3769.5 1703.07 3769.5 1699.31 3766.55 1696.5 3763.07 1696.5Z" stroke="#F4FF61" stroke-width="3.4375" stroke-linejoin="round" stroke-miterlimit="10" fill="#657E93" fill-rule="evenodd"/></g></svg>