<svg width="378" height="309" xmlns="http://www.w3.org/2000/svg" xmlns:xlink="http://www.w3.org/1999/xlink" overflow="hidden"><defs><clipPath id="clip0"><rect x="2015" y="431" width="378" height="309"/></clipPath></defs><g clip-path="url(#clip0)" transform="translate(-2015 -431)"><path d="" transform="translate(2103.28 618)"/><path d="M18.375 10.3359 18.375-113.48 183.463-113.48 183.463 10.3359Z" transform="translate(2103.28 618)"/><path d="M173.127 0 28.7109 0 28.7109-36.104 34.7402-51.6079 28.7109-67.1118 28.7109-103.216 173.127-103.216 173.127-67.1118 165.806-51.6079 173.127-36.104Z" fill="#383838" transform="translate(2103.28 618)"/><path d="M85.415-77.376C86.8506-77.376 88.1904-77.1128 89.4346-76.5864 90.6787-76.0601 91.7673-75.3303 92.7004-74.3972 93.6335-73.4641 94.3752-72.3755 94.9255-71.1313 95.4758-69.8872 95.751-68.5474 95.751-67.1118L95.751-36.104C95.751-34.6685 95.4758-33.3286 94.9255-32.0845 94.3752-30.8403 93.6335-29.7517 92.7004-28.8186 91.7673-27.8855 90.6787-27.1558 89.4346-26.6294 88.1904-26.103 86.8506-25.8398 85.415-25.8398L38.9751-25.8398C37.5395-25.8398 36.1997-26.103 34.9556-26.6294 33.7114-27.1558 32.6228-27.8855 31.6897-28.8186 30.7566-29.7517 30.0269-30.8403 29.5005-32.0845 28.9741-33.3286 28.7109-34.6685 28.7109-36.104L28.7109-67.1118C28.7109-68.5474 28.9741-69.8872 29.5005-71.1313 30.0269-72.3755 30.7566-73.4641 31.6897-74.3972 32.6228-75.3303 33.7114-76.0601 34.9556-76.5864 36.1997-77.1128 37.5395-77.376 38.9751-77.376ZM162.791-77.376C164.227-77.376 165.566-77.1128 166.811-76.5864 168.055-76.0601 169.143-75.3303 170.076-74.3972 171.01-73.4641 171.751-72.3755 172.301-71.1313 172.852-69.8872 173.127-68.5474 173.127-67.1118L173.127-36.104C173.127-34.6685 172.852-33.3286 172.301-32.0845 171.751-30.8403 171.01-29.7517 170.076-28.8186 169.143-27.8855 168.055-27.1558 166.811-26.6294 165.566-26.103 164.227-25.8398 162.791-25.8398L116.423-25.8398C114.987-25.8398 113.647-26.103 112.403-26.6294 111.159-27.1558 110.071-27.8855 109.137-28.8186 108.204-29.7517 107.463-30.8403 106.912-32.0845 106.362-33.3286 106.087-34.6685 106.087-36.104L106.087-67.1118C106.087-68.5474 106.362-69.8872 106.912-71.1313 107.463-72.3755 108.204-73.4641 109.137-74.3972 110.071-75.3303 111.159-76.0601 112.403-76.5864 113.647-77.1128 114.987-77.376 116.423-77.376Z" fill="#757575" transform="translate(2103.28 618)"/><path d="M54.479-5.16797 54.479-15.5039 64.8149-15.5039 64.8149-5.16797ZM95.751-5.16797 95.751-15.5039 106.087-15.5039 106.087-5.16797ZM95.751-87.7119 95.751-98.0478 106.087-98.0478 106.087-87.7119ZM137.023-5.16797 137.023-15.5039 147.359-15.5039 147.359-5.16797ZM54.479-87.7119 54.479-98.0478 64.8149-98.0478 64.8149-87.7119ZM137.023-87.7119 137.023-98.0478 147.359-98.0478 147.359-87.7119ZM157.695-5.16797 157.695-15.5039 167.959-15.5039 167.959-5.16797ZM33.8789-87.7119 33.8789-98.0478 44.1431-98.0478 44.1431-87.7119ZM33.8789-5.16797 33.8789-15.5039 44.1431-15.5039 44.1431-5.16797ZM75.1509-5.16797 75.1509-15.5039 85.415-15.5039 85.415-5.16797ZM75.1509-87.7119 75.1509-98.0478 85.415-98.0478 85.415-87.7119ZM116.423-87.7119 116.423-98.0478 126.687-98.0478 126.687-87.7119ZM116.423-5.16797 116.423-15.5039 126.687-15.5039 126.687-5.16797ZM157.695-98.0478 167.959-98.0478 167.959-87.7119 157.695-87.7119Z" fill="#FFFFFF" transform="translate(2103.28 618)"/></g></svg>