<svg width="96" height="96" xmlns="http://www.w3.org/2000/svg" xmlns:xlink="http://www.w3.org/1999/xlink" overflow="hidden"><defs><clipPath id="clip0"><rect x="970" y="201" width="96" height="96"/></clipPath></defs><g clip-path="url(#clip0)" transform="translate(-970 -201)"><path d="M1045.58 253 1035 253 1035 255 1045 255 1045 271 1035 271 1035 273 1045.59 273 1051.59 279 1058 279 1058 247 1051.59 246.984ZM1056 249 1056 277 1052.41 277 1047 271.586 1047 254.414 1052.41 248.987Z"/><path d="M987 250 987 251.014 983.411 251.014 981.411 249.014 976 249.014 976 260.014 981.415 260.014 983.415 258.014 987 258.014 987 276C987 278.209 988.791 280 991 280L1031 280C1033.21 280 1035 278.209 1035 276L1035 250C1035 247.856 1033.3 246.097 1031.16 246.016 1037.8 242.062 1039.98 233.47 1036.03 226.826 1032.08 220.181 1023.48 218 1016.84 221.954 1010.19 225.909 1008.01 234.5 1011.97 241.145 1013.15 243.14 1014.82 244.808 1016.81 246L1003.18 246C1009.8 242.025 1011.95 233.434 1007.97 226.811 1004 220.188 995.408 218.041 988.785 222.016 982.162 225.992 980.016 234.583 983.991 241.206 985.292 243.374 987.158 245.15 989.388 246.342 987.938 246.981 987.001 248.415 987 250ZM987 256.016 982.583 256.016 980.583 258.016 978 258.016 978 251.016 980.587 251.016 982.587 253.016 987 253.016ZM1012 234C1012 227.373 1017.37 222 1024 222 1030.63 222 1036 227.373 1036 234 1036 240.627 1030.63 246 1024 246 1017.38 245.993 1012.01 240.624 1012 234ZM984 234C984 227.373 989.373 222 996 222 1002.63 222 1008 227.373 1008 234 1008 240.627 1002.63 246 996 246 989.376 245.993 984.007 240.624 984 234ZM989 250C989 248.895 989.895 248 991 248L1031 248C1032.1 248 1033 248.895 1033 250L1033 276C1033 277.105 1032.1 278 1031 278L991 278C989.895 278 989 277.105 989 276Z"/><path d="M1029 272C1029 273.105 1028.1 274 1027 274 1025.89 274 1025 273.105 1025 272 1025 270.895 1025.89 270 1027 270 1028.1 270 1029 270.895 1029 272Z"/><path d="M997.996 230C997.996 231.105 997.101 232 995.996 232 994.891 232 993.996 231.105 993.996 230 993.996 228.895 994.891 228 995.996 228 997.101 228 997.996 228.895 997.996 230Z"/><path d="M993.996 234C993.996 235.105 993.101 236 991.996 236 990.891 236 989.996 235.105 989.996 234 989.996 232.895 990.891 232 991.996 232 993.101 232 993.996 232.895 993.996 234Z"/><path d="M1002 234C1002 235.105 1001.1 236 999.996 236 998.891 236 997.996 235.105 997.996 234 997.996 232.895 998.891 232 999.996 232 1001.1 232 1002 232.895 1002 234Z"/><path d="M997.996 238C997.996 239.105 997.101 240 995.996 240 994.891 240 993.996 239.105 993.996 238 993.996 236.895 994.891 236 995.996 236 997.101 236 997.996 236.895 997.996 238Z"/><path d="M1026 230C1026 231.105 1025.1 232 1024 232 1022.89 232 1022 231.105 1022 230 1022 228.895 1022.89 228 1024 228 1025.1 228 1026 228.895 1026 230Z"/><path d="M1022 234C1022 235.105 1021.1 236 1020 236 1018.89 236 1018 235.105 1018 234 1018 232.895 1018.89 232 1020 232 1021.1 232 1022 232.895 1022 234Z"/><path d="M1026 238C1026 239.105 1025.1 240 1024 240 1022.89 240 1022 239.105 1022 238 1022 236.895 1022.89 236 1024 236 1025.1 236 1026 236.895 1026 238Z"/><path d="M1030 234C1030 235.105 1029.1 236 1028 236 1026.89 236 1026 235.105 1026 234 1026 232.895 1026.89 232 1028 232 1029.1 232 1030 232.895 1030 234Z"/></g></svg>