<svg width="132" height="131" xmlns="http://www.w3.org/2000/svg" xmlns:xlink="http://www.w3.org/1999/xlink" overflow="hidden"><defs><clipPath id="clip0"><rect x="374" y="152" width="132" height="131"/></clipPath></defs><g clip-path="url(#clip0)" transform="translate(-374 -152)"><path d="M421.93 175C414.977 175 408.574 177.35 403.701 181.896 403.012 182.552 403.012 183.852 403.701 184.497 404.052 184.825 404.542 184.989 405.045 184.989 405.547 184.989 406.073 184.825 406.482 184.497 410.665 180.596 416.087 178.519 421.93 178.519 427.913 178.519 433.335 180.596 437.506 184.497 437.857 184.825 438.383 184.989 438.908 184.989 439.423 184.989 439.948 184.825 440.299 184.497 440.988 183.852 440.988 182.552 440.299 181.896 435.426 177.35 428.883 175 421.93 175Z" fill="#94FC13" fill-rule="evenodd"/><path d="M457.159 231.287 462.191 236.465 459.057 239.742 453.888 234.564C455.112 233.601 456.072 232.376 457.159 231.287ZM422.06 155.758C433.188 155.758 444.293 160.019 452.664 168.542 468.87 184.776 469.545 210.151 455.386 227.197 453.614 229.512 451.841 231.15 449.805 232.926 441.811 239.65 431.952 243.007 422.083 243.007 410.932 243.007 399.77 238.734 391.249 230.199 374.231 213.152 374.231 185.463 391.249 168.542 399.758 160.019 410.932 155.758 422.06 155.758ZM467.418 237.233C467.784 237.233 468.127 237.382 468.321 237.703L473.628 242.468 464.65 251.473 460.155 245.882C459.744 245.195 459.744 244.244 460.155 243.832L466.274 237.703C466.571 237.416 467.006 237.233 467.418 237.233ZM476.761 244.794 498.686 264.029C502.368 267.294 502.631 273.159 498.96 276.711 497.267 278.395 495.117 279.219 492.967 279.219 490.588 279.219 488.21 278.223 486.437 276.298L467.372 254.199 476.761 244.794ZM421.957 152.011C409.834 152.011 397.722 156.605 388.527 165.816 370.011 184.501 370.011 214.516 388.527 232.926 397.802 242.216 409.902 246.764 421.957 246.764 432.216 246.764 442.44 243.477 450.892 237.015L456.473 242.606C455.661 244.519 455.798 246.833 457.296 248.334L483.841 278.75C486.323 281.591 489.754 282.988 493.185 282.988 496.364 282.988 499.532 281.797 501.956 279.437 506.989 274.247 506.726 265.93 501.27 261.291L470.906 234.701C469.922 233.785 468.687 233.384 467.463 233.384 466.674 233.384 465.885 233.556 465.188 233.876L459.469 228.286C473.765 209.876 472.679 182.863 455.386 165.816 446.191 156.605 434.08 152.011 421.957 152.011Z" fill="#94FC13" fill-rule="evenodd"/><path d="M427.158 163C426.197 163 425.395 163.677 425.271 164.802 425 166.03 425.678 166.845 426.887 166.983 434.015 168.073 440.195 171.218 445.178 176.418 457.82 189.262 457.82 210.175 445.178 223.019 440.195 227.793 433.744 231.076 426.887 232.04 425.938 232.304 425.271 233.268 425.271 234.359 425.407 235.311 426.209 236 427.022 236L427.418 236C435.36 234.772 442.353 231.214 447.867 225.613 461.989 211.265 461.989 187.896 447.867 173.548 442.353 167.809 435.36 164.251 427.418 163.023 427.327 163.011 427.237 163 427.158 163Z" fill="#94FC13" fill-rule="evenodd"/><path d="M418.029 163.011C417.96 163.011 417.892 163.011 417.824 163.023 409.688 163.7 402.225 167.396 396.254 173.273 382.011 187.62 382.011 211.127 396.254 225.475 402.225 231.352 409.688 235.047 417.824 236L417.96 236C419.043 236 419.727 235.311 419.863 234.359 419.989 233.268 419.18 232.304 418.097 232.304 410.907 231.352 404.116 228.207 398.829 222.881 386.079 210.037 386.079 188.986 398.829 176.28 404.116 170.943 410.634 167.671 418.097 166.845 419.18 166.57 419.989 165.755 419.863 164.802 419.738 163.78 418.906 163.011 418.029 163.011Z" fill="#94FC13" fill-rule="evenodd"/></g></svg>