<svg width="96" height="96" xmlns="http://www.w3.org/2000/svg" xmlns:xlink="http://www.w3.org/1999/xlink" overflow="hidden"><defs><clipPath id="clip0"><rect x="513" y="148" width="96" height="96"/></clipPath></defs><g clip-path="url(#clip0)" transform="translate(-513 -148)"><path d="M584.3 209.9C582.1 207.7 578.5 207.8 575.8 209.9L571.6 205.7C582.5 193.9 581.8 175.6 570 164.7 558.2 153.8 540 154.6 529.1 166.4 518.2 178.2 519 196.5 530.7 207.4 541.9 217.8 559.2 217.7 570.3 207.2L574.5 211.4C573.6 212.5 573.1 213.9 572.9 215.3 572.7 217 573.3 218.7 574.5 219.9L588.6 234C589.7 235 591.1 235.6 592.6 235.6 594.6 235.6 596.4 234.8 597.8 233.4 599.1 232.2 599.9 230.5 600 228.7 600.2 227 599.6 225.3 598.4 224.1L584.3 209.9ZM531.4 205.1C520.9 194.6 520.9 177.5 531.4 166.9 541.9 156.3 559 156.4 569.6 166.9 580.2 177.4 580.1 194.5 569.6 205.1 564.5 210.2 557.7 213 550.5 213 543.4 213 536.5 210.2 531.4 205.1ZM596.3 231.8C594.4 233.7 591.5 234 589.9 232.4L575.9 218.4C575.1 217.6 574.8 216.5 574.9 215.4 575 214.1 575.6 212.9 576.6 212 577.6 211 579 210.4 580.4 210.3 581.4 210.3 582.3 210.6 583 211.3L597 225.4C597.8 226.2 598.1 227.3 598 228.4 597.8 229.7 597.3 230.9 596.3 231.8 596.3 231.8 596.3 231.8 596.3 231.8Z"/></g></svg>