<svg width="96" height="96" xmlns="http://www.w3.org/2000/svg" xmlns:xlink="http://www.w3.org/1999/xlink" overflow="hidden"><defs><clipPath id="clip0"><rect x="60" y="300" width="96" height="96"/></clipPath></defs><g clip-path="url(#clip0)" transform="translate(-60 -300)"><path d="M143.4 361.5C142.9 358.5 141.3 355.8 138.9 353.9 135.9 351.6 132.7 349.7 129.2 348.4 130.3 345.5 129 342.2 126.2 340.8 133.5 330.8 131.3 316.7 121.3 309.4 111.3 302.1 97.2 304.3 89.9 314.3 84.1 322.2 84.1 332.9 89.9 340.8 87.1 342.3 85.9 345.6 87 348.5 83.6 350 80.3 351.8 77.3 353.9 74.8 355.8 73.2 358.5 72.7 361.6L70.9 383.5 72.5 384C73 384.1 86.5 388 108 388 129.5 388 143 384.1 143.6 383.9L145.2 383.4 143.5 361.6 143.4 361.5ZM91.6 348.2C90.5 347.6 90.2 346.2 90.8 345.1 91.2 344.4 91.9 344 92.7 344 101.3 352 114.6 352 123.2 344 123.4 344 123.6 344 123.7 344.1 124.9 344.4 125.6 345.6 125.3 346.8 125.2 347.4 124.8 347.9 124.3 348.2 120.4 350.6 114.4 352 108 352 101.6 352 95.7 350.6 91.6 348.2ZM120 333C120 334.4 119.8 335.7 119.3 337L114.9 337C114.5 336.4 113.9 336 113.2 336L111.2 336C110.1 336 109.2 336.9 109.2 338 109.2 339.1 110.1 340 111.2 340L113.2 340C113.9 340 114.6 339.6 114.9 339L118.4 339C115.1 344.7 107.8 346.7 102 343.4 98.3 341.3 96 337.3 96 333L96 321.6C99.7 319.8 103.9 318.9 108 319 112.1 318.9 116.3 319.8 120 321.6L120 333ZM108 309C115.3 309 121.9 313.3 124.9 319.9 120.9 316.9 114.9 315 108 315 101.1 315 95.1 316.9 91.1 319.9 94.1 313.3 100.7 309 108 309L108 309ZM129.8 382.5 129 375.8C128.9 374.7 127.9 373.9 126.8 374.1 125.7 374.2 124.9 375.2 125.1 376.3L125.9 383.1C119.9 383.7 114 384 108 384 102 384 96.1 383.7 90.1 383L90.9 376.2C91 375.1 90.3 374.1 89.2 374 88.1 373.9 87.1 374.6 87 375.7L87 375.7 86.2 382.5C80.9 381.8 77.1 380.9 75.2 380.5L76.7 362.1C76.9 360.9 77.3 359.8 78 358.9L83.1 363.3 87 358.7 82.8 355.1C85 353.8 87.3 352.6 89.7 351.7 94.3 354.4 101 356 108 356 115.1 356 121.8 354.4 126.5 351.6 128.9 352.5 131.2 353.6 133.4 355L129 358.7 132.9 363.3 138 358.9C138.7 359.9 139.1 361 139.3 362.1L140.8 380.5C138.9 381 135.1 381.8 129.8 382.5Z" stroke="#AA26DA" stroke-width="1.66667" fill="none"/><path d="M116 361 100 361C97.8 361 96 362.8 96 365L96 373C96 375.2 97.8 377 100 377L116 377C118.2 377 120 375.2 120 373L120 365C120 362.8 118.2 361 116 361ZM100 373 100 365 116 365 116 373 100 373Z" stroke="#AA26DA" stroke-width="1.66667" fill="none"/><path d="M67.2 336C66.6 338.2 65.1 340 63 341 65 342 66.6 343.8 67.2 346 67.8 343.8 69.3 342 71.4 341 69.3 340 67.8 338.2 67.2 336Z" stroke="#AA26DA" stroke-width="1.66667" fill="none"/><path d="M77.8 309C77.2 311.2 75.7 313 73.6 314 75.6 315 77.2 316.8 77.8 319 78.4 316.8 79.9 315 82 314 80 313 78.4 311.2 77.8 309Z" stroke="#AA26DA" stroke-width="1.66667" fill="none"/><path d="M143.8 331.1C143.2 333.3 141.7 335.1 139.6 336.1 141.6 337.1 143.2 338.9 143.8 341.1 144.4 338.9 145.9 337.1 148 336.1 146 335.1 144.4 333.3 143.8 331.1Z" stroke="#AA26DA" stroke-width="1.66667" fill="none"/></g></svg>