<svg width="96" height="96" xmlns="http://www.w3.org/2000/svg" xmlns:xlink="http://www.w3.org/1999/xlink" overflow="hidden"><defs><clipPath id="clip0"><rect x="476" y="227" width="96" height="96"/></clipPath></defs><g clip-path="url(#clip0)" transform="translate(-476 -227)"><path d="M487.622 282.337 496.178 285.899C496.352 285.975 496.54 286.015 496.731 286.017 497.665 286.017 498.357 284.953 498.36 283.346L498.371 277.156C498.374 275.246 497.403 273.292 496.201 272.791L487.645 269.229C487.47 269.153 487.282 269.113 487.092 269.111 486.158 269.111 485.466 270.175 485.463 271.782L485.452 277.972C485.449 279.882 486.42 281.836 487.622 282.337ZM487.452 277.877 492.085 273.244 493.971 274.029 487.993 280.008C487.638 279.389 487.451 278.689 487.452 277.975ZM496.37 277.152 496.37 277.215 491.712 281.874 489.766 281.064 495.782 275.047C496.168 275.681 496.372 276.41 496.371 277.152ZM496.327 283.795 493.709 282.705 496.365 280.048 496.36 283.342C496.361 283.494 496.35 283.645 496.327 283.795ZM487.496 271.333 490.089 272.413 487.457 275.045 487.463 271.786C487.462 271.634 487.473 271.483 487.496 271.333Z"/><path d="M512.794 292.818 521.35 296.38C521.525 296.456 521.713 296.495 521.903 296.498 522.838 296.498 523.529 295.433 523.532 293.827L523.543 287.637C523.547 285.727 522.575 283.772 521.373 283.272L512.818 279.71C512.643 279.634 512.455 279.595 512.264 279.592 511.33 279.592 510.638 280.656 510.635 282.263L510.624 288.453C510.621 290.363 511.592 292.318 512.794 292.818ZM512.635 282.266C512.635 282.115 512.646 281.964 512.668 281.814L520.594 285.114C521.241 285.789 521.584 286.7 521.543 287.634L521.532 293.824C521.533 293.975 521.522 294.127 521.499 294.276L513.574 290.976C512.926 290.301 512.583 289.391 512.624 288.456Z"/><path d="M566.819 270.092C564.57 267.714 561.099 266.949 558.059 268.161L529.492 279.532C529.458 279.508 529.422 279.486 529.384 279.467L496.136 265.623 497.09 262.024 508.546 257.276C509.236 256.99 510.027 257.317 510.313 258.006 510.381 258.171 510.417 258.347 510.416 258.525L510.416 259.209C510.431 259.791 510.07 260.317 509.521 260.512 508.119 260.947 507.164 262.245 507.166 263.713L507.166 264.683C507.151 265.412 507.365 266.127 507.778 266.728 508.671 267.983 510.303 268.472 511.739 267.912L512.708 267.533C517.106 265.813 520 261.573 520 256.851L520 254.842C520.036 252.712 519.252 250.65 517.81 249.083 515.559 246.712 512.09 245.951 509.053 247.163L479.633 259.098C479.582 259.119 479.533 259.143 479.486 259.172 479.208 259.357 479.04 259.668 479.04 260.002L479 282.486C478.999 282.891 479.242 283.255 479.615 283.411L481.991 284.4 483.452 287.34C483.559 287.556 483.74 287.725 483.963 287.818L496.75 293.142C498.775 293.987 500.733 293.199 501.859 291.091L503.605 287.823C503.686 287.67 503.825 287.516 503.958 287.501 504.254 287.521 504.884 287.992 505.315 289.168L507.046 293.883C508.023 296.543 509.622 298.501 511.433 299.255L524.22 304.579C524.62 304.746 525.083 304.636 525.364 304.306L526.662 302.787 528.864 302.999C528.884 303.001 528.903 302.992 528.923 302.992 528.949 302.995 528.974 303.004 529 303.004 529.082 302.998 529.162 302.982 529.24 302.957 529.254 302.953 529.27 302.954 529.284 302.949 529.315 302.944 529.346 302.938 529.377 302.931L542.377 297.645C542.68 297.521 542.904 297.257 542.976 296.938L546.112 283.016 557.547 278.276C558.236 277.99 559.027 278.317 559.314 279.006 559.382 279.171 559.417 279.347 559.417 279.525L559.417 280.209C559.432 280.791 559.071 281.317 558.522 281.512 557.12 281.947 556.165 283.245 556.167 284.713L556.167 285.738C556.13 287.584 557.596 289.11 559.442 289.146 559.886 289.155 560.327 289.076 560.74 288.912L561.709 288.533C566.106 286.813 569 282.573 569 277.851L569 275.846C569.037 273.72 568.256 271.66 566.819 270.092ZM509.799 249.019C511.717 248.241 513.903 248.522 515.562 249.76 517.128 250.958 518.033 252.829 518 254.801L518 256.85C518 260.749 515.611 264.249 511.98 265.67L511.012 266.049C510.315 266.32 509.531 265.976 509.259 265.28 509.198 265.123 509.167 264.956 509.167 264.788L509.167 263.742C509.151 263.16 509.513 262.634 510.061 262.439 511.464 262.005 512.419 260.706 512.417 259.238L512.417 258.671C512.437 257.791 512.127 256.935 511.549 256.272 510.596 255.223 509.088 254.886 507.78 255.429L495.867 260.366C495.579 260.486 495.363 260.732 495.283 261.034L494.272 264.847 482.675 260.018C482.663 260.013 482.663 260.005 482.675 260ZM527.962 300.903 526.336 300.746C526.011 300.715 525.692 300.844 525.48 301.092L524.316 302.453 512.201 297.409C510.941 296.885 509.685 295.269 508.924 293.193L507.192 288.479C506.552 286.733 505.365 285.594 504.096 285.506 504.043 285.502 503.989 285.5 503.936 285.5 503.031 285.523 502.218 286.059 501.84 286.882L500.095 290.148C499.744 291.157 498.642 291.691 497.633 291.34 497.594 291.327 497.556 291.312 497.518 291.296L485.076 286.115 483.616 283.177C483.509 282.961 483.327 282.791 483.104 282.698L481.001 281.822 481.038 261.517C481.037 261.512 481.041 261.507 481.046 261.507 481.048 261.506 481.05 261.507 481.051 261.508L527.998 281.056ZM567 277.85C567 281.749 564.611 285.249 560.98 286.67L560.012 287.049C559.315 287.32 558.531 286.976 558.259 286.28 558.198 286.123 558.167 285.956 558.167 285.788L558.167 284.742C558.151 284.16 558.513 283.634 559.062 283.439 560.464 283.005 561.419 281.706 561.417 280.238L561.417 279.672C561.437 278.793 561.128 277.938 560.552 277.275 559.6 276.224 558.09 275.885 556.78 276.429L544.867 281.366C544.567 281.491 544.346 281.753 544.274 282.07L541.139 295.988 530 300.518 530 281.482 558.798 270.019C560.717 269.241 562.903 269.522 564.563 270.76 566.129 271.959 567.033 273.829 567 275.801Z"/></g></svg>